# xmcd
#
# Track frame offsets:
#	150
#	17845
#	37014
#	54882
#	74973
#	92524
#	112787
#	133827
#	151501
#	169107
#	188406
#	206473
#	227733
#	243451
#	262851
#
# Disc length: 3719 seconds
#
# Revision: 1
# Processed by: cddbd v1.5.2PL0 Copyright (c) Steve Scherf et al.
# Submitted via: EasyCDDAExtractor 15.3.0.1
#
DISCID=bc0e850f
DTITLE=Noelia - Natural
DYEAR=2003
DGENRE=Latin
TTITLE0=Y Se Ira
TTITLE1=Ya No Eres El Mismo
TTITLE2=Clavame Tu Amor
TTITLE3=Tan Cerca Y Tan Lejos
TTITLE4=Marcha Atras
TTITLE5=Puedo Ser Tu Libertad
TTITLE6=Que Poco Sabes
TTITLE7=Voy Hacia Ti
TTITLE8=Enamorada
TTITLE9=Como Corre El Rio Hacia El Mar
TTITLE10=Huella Tras Huella
TTITLE11=Clavame Tu Amor (Version Salsa) (Bonus Track)
TTITLE12=Clavame Tu Amor (Version Cumbia) (Bonus Track)
TTITLE13=Ya No Eres El Mismo (Version Salsa) (Bonus Track)
TTITLE14=Ya No Eres El Mismo (Version Cumbia) (Bonus Track)
EXTD=
EXTT0=
EXTT1=
EXTT2=
EXTT3=
EXTT4=
EXTT5=
EXTT6=
EXTT7=
EXTT8=
EXTT9=
EXTT10=
EXTT11=
EXTT12=
EXTT13=
EXTT14=
PLAYORDER=
